<?xml version="1.0" encoding="utf-8"?>
<!-- Generator: Adobe Illustrator 24.0.1, SVG Export Plug-In . SVG Version: 6.00 Build 0)  -->
<svg version="1.1" xmlns="http://www.w3.org/2000/svg" xmlns:xlink="http://www.w3.org/1999/xlink" x="0px" y="0px"
	 viewBox="0 0 283.46 283.46" style="enable-background:new 0 0 283.46 283.46;" xml:space="preserve">
<style type="text/css">
	.st0{fill:none;stroke:#706F6F;stroke-width:14.1732;stroke-miterlimit:10;}
	.st1{fill:#FFFFFF;stroke:#706F6F;stroke-width:14.1732;stroke-miterlimit:10;}
</style>
<g id="Layer_1">
</g>
<g id="Layer_3">
	<path class="st0" d="M178.6,166.77l37.47-21.64c5.3-3.06,11.93,0.77,11.93,6.89l0,43.27c0,6.12-6.63,9.95-11.93,6.89l-37.47-21.63
		C173.3,177.48,173.3,169.83,178.6,166.77z"/>
	<path class="st1" d="M174.6,214.01H67.46c-6.6,0-12-5.4-12-12v-58.1c0-6.6,5.4-12,12-12H174.6c6.6,0,12,5.4,12,12v58.1
		C186.6,208.61,181.2,214.01,174.6,214.01z"/>
	<circle class="st1" cx="152.96" cy="97.11" r="27.65"/>
	<circle class="st1" cx="79.4" cy="104.52" r="21.95"/>
</g>
</svg>
