<?xml version="1.0" encoding="utf-8"?>
<!-- Generator: Adobe Illustrator 24.0.1, SVG Export Plug-In . SVG Version: 6.00 Build 0)  -->
<svg version="1.1" xmlns="http://www.w3.org/2000/svg" xmlns:xlink="http://www.w3.org/1999/xlink" x="0px" y="0px"
	 viewBox="0 0 283.46 283.46" style="enable-background:new 0 0 283.46 283.46;" xml:space="preserve">
<style type="text/css">
	.st0{fill:none;stroke:#706F6F;stroke-width:14.1732;stroke-linecap:round;stroke-linejoin:round;stroke-miterlimit:10;}
	.st1{fill:none;stroke:#706F6F;stroke-width:14.1732;stroke-miterlimit:10;}
	.st2{fill:none;stroke:#706F6F;stroke-width:0.7087;stroke-miterlimit:10;}
</style>
<g id="Layer_3">
	<path class="st0" d="M97.54,67.11c0,0-1,25.32-10.44,36.48s7.86,15.02,5.22,25.75c-2.64,10.73-12.94,28.33-11.23,36.48
		c1.72,8.15,5,15.45,16.45,13.3s7.59-11.59,14.02-11.59c6.44,0,11.59,8.58,19.74,6.44c8.15-2.15,17.6-1.72,16.74-15.45
		s-17.6-47.21-8.58-51.93c9.01-4.72,9.87,3.86,16.31,3.43c6.44-0.43,2.58-10.3,14.59-9.01c12.02,1.29,29.61,10.3,32.19,4.72
		s16.18-7.73,16.18-7.73"/>
	<path class="st0" d="M135.25,228.64c0,0-3.09-8.32,8.5-17.33s21.89-4.72,22.75-17.17s3-27.9,13.3-30.04
		c10.3-2.15,23.18-1.72,27.9,10.3c4.72,12.02,7.73,10.73,7.73,10.73"/>
	<path class="st0" d="M227.45,145.65c0,0-12.02-1.29-18.45,2.15c-6.44,3.43-17.17-1.58-18.88-5.51
		c-1.72-3.93,34.33-25.39,34.33-25.39"/>
</g>
<g id="Layer_2">
	<circle class="st1" cx="141.73" cy="141.73" r="91.53"/>
	<path class="st2" d="M135.25,228.64"/>
	<path class="st2" d="M97.54,64.24"/>
	<path class="st2" d="M98.28,65.11"/>
	<path class="st2" d="M218.73,182.28"/>
</g>
</svg>
