<?xml version="1.0" encoding="utf-8"?>
<!-- Generator: Adobe Illustrator 24.0.1, SVG Export Plug-In . SVG Version: 6.00 Build 0)  -->
<svg version="1.1" xmlns="http://www.w3.org/2000/svg" xmlns:xlink="http://www.w3.org/1999/xlink" x="0px" y="0px"
	 viewBox="0 0 283.46 283.46" style="enable-background:new 0 0 283.46 283.46;" xml:space="preserve">
<style type="text/css">
	.st0{fill:none;stroke:#706F6F;stroke-width:14.1732;stroke-miterlimit:10;}
</style>
<g id="Layer_1">
</g>
<g id="Layer_3">
	<circle class="st0" cx="57.4" cy="113.42" r="12.04"/>
	<circle class="st0" cx="141.32" cy="77.84" r="12.04"/>
	<circle class="st0" cx="226.07" cy="113.42" r="12.04"/>
	<path class="st0" d="M59.65,128.1"/>
	<path class="st0" d="M194.88,217.66H88.5c-7.8,0-14.17-6.38-14.17-14.17v-4.02c0-7.8,6.38-14.17,14.17-14.17h106.38
		c7.83,0,14.17,6.35,14.17,14.17v4.02C209.05,211.32,202.71,217.66,194.88,217.66z"/>
	<line class="st0" x1="59.65" y1="128.1" x2="77.33" y2="189.76"/>
	<line class="st0" x1="222.98" y1="128.1" x2="206.07" y2="189.76"/>
	<path class="st0" d="M64.78,122.93l35.51,33.39c0,0,6.77,3.76,9.41-2.26s27.47-62.47,27.47-62.47"/>
	<path class="st0" d="M217.36,122.07l-35.51,33.39c0,0-6.77,3.76-9.41-2.26s-27.47-62.47-27.47-62.47"/>
</g>
</svg>
