<?xml version="1.0" encoding="utf-8"?>
<!-- Generator: Adobe Illustrator 24.0.1, SVG Export Plug-In . SVG Version: 6.00 Build 0)  -->
<svg version="1.1" xmlns="http://www.w3.org/2000/svg" xmlns:xlink="http://www.w3.org/1999/xlink" x="0px" y="0px"
	 viewBox="0 0 283.46 283.46" style="enable-background:new 0 0 283.46 283.46;" xml:space="preserve">
<style type="text/css">
	.st0{fill:none;stroke:#706F6F;stroke-width:2.8346;stroke-miterlimit:10;}
	.st1{fill:none;stroke:#706F6F;stroke-width:14.1732;stroke-linecap:round;stroke-linejoin:round;stroke-miterlimit:10;}
	.st2{fill:#706F6F;}
</style>
<g id="Layer_1">
</g>
<g id="Layer_3">
	<path class="st0" d="M107.02,245.98"/>
	<path class="st1" d="M107.02,245.98v-34.65c0,0,0.82-6.5,8.19-6.15c7.38,0.35,8.43,5.79,8.43,5.79v13.17c0,0,3.16,7.73,9.13,7.9
		c5.97,0.18,9.43-7.38,9.28-7.2c-0.15,0.18,0-187.36,0-187.36l59.2,45.66l-57.24,80.07l-4.92-0.7L82.2,84.9l56.89-45.66"/>
	<line class="st1" x1="87.82" y1="84.55" x2="195.99" y2="84.55"/>
	<g>
		<g>
			<path class="st2" d="M139.43,229.64c0.04-0.17,0.08-0.35,0.13-0.52c0.03-0.11,0.08-0.21,0.11-0.31c0.1-0.28-0.24,0.49-0.09,0.23
				c0.09-0.15,0.16-0.32,0.26-0.47c0.05-0.08,0.1-0.15,0.15-0.22c0.13-0.18,0.33-0.27-0.11,0.13c0.13-0.12,0.24-0.27,0.36-0.39
				c0.06-0.06,0.13-0.12,0.2-0.18c0.26-0.24-0.18,0.1-0.2,0.14c0.06-0.13,0.38-0.26,0.5-0.33c0.17-0.1,0.35-0.19,0.54-0.27
				c-1.14-1.14-2.28-2.28-3.42-3.42c-0.14,0.21-0.28,0.41-0.43,0.61c-0.07,0.1-0.15,0.2-0.22,0.3c-0.24,0.32-0.08,0.04,0.07-0.09
				c-0.36,0.31-0.64,0.79-0.96,1.14c-0.67,0.74-1.38,1.44-2.14,2.08c-0.19,0.16-0.38,0.32-0.58,0.48c-0.26,0.21,0.07-0.05,0.15-0.11
				c-0.12,0.09-0.24,0.18-0.36,0.27c-0.38,0.28-0.77,0.55-1.17,0.8c-0.86,0.55-1.76,1.04-2.68,1.47c1.22,0.5,2.45,1,3.67,1.49
				c-0.14-0.65,0.02,0.49-0.01,0.05c-0.01-0.12-0.02-0.25-0.02-0.37c0-0.11-0.04-0.4,0.02-0.49c-0.02,0.14-0.04,0.28-0.06,0.42
				c0.01-0.08,0.03-0.16,0.04-0.24c0.06-0.29,0.18-0.55,0.25-0.83c-0.18,0.69-0.14,0.31-0.02,0.09c0.07-0.13,0.14-0.25,0.22-0.38
				c0.06-0.1,0.15-0.2,0.21-0.31c-0.27,0.34-0.32,0.41-0.16,0.21c0.05-0.06,0.11-0.13,0.16-0.19c0.08-0.09,0.17-0.18,0.26-0.26
				c0.17-0.16,0.62-0.41-0.03,0c0.25-0.15,0.48-0.31,0.74-0.44c0.38-0.2-0.58,0.19-0.14,0.07c0.16-0.05,0.31-0.1,0.48-0.13
				c1.27-0.3,2.15-1.82,1.75-3.08c-0.43-1.33-1.71-2.07-3.08-1.75c-3.9,0.92-6.28,5.12-5.43,8.95c0.17,0.75,0.77,1.33,1.45,1.62
				c0.78,0.33,1.48,0.22,2.23-0.13c4.1-1.91,7.58-5.01,10.11-8.75c0.59-0.88,0.38-2.32-0.39-3.03c-0.32-0.29-0.69-0.51-1.1-0.64
				c-0.67-0.22-1.32-0.02-1.93,0.25c-2.06,0.91-3.68,2.99-4.14,5.18c-0.27,1.28,0.38,2.76,1.75,3.08
				C137.61,231.67,139.14,231,139.43,229.64L139.43,229.64z"/>
		</g>
	</g>
</g>
</svg>
