<?xml version="1.0" encoding="utf-8"?>
<!-- Generator: Adobe Illustrator 24.0.1, SVG Export Plug-In . SVG Version: 6.00 Build 0)  -->
<svg version="1.1" xmlns="http://www.w3.org/2000/svg" xmlns:xlink="http://www.w3.org/1999/xlink" x="0px" y="0px"
	 viewBox="0 0 283.46 283.46" style="enable-background:new 0 0 283.46 283.46;" xml:space="preserve">
<style type="text/css">
	.st0{fill:none;stroke:#706F6F;stroke-width:14.1732;stroke-miterlimit:10;}
	.st1{fill:none;stroke:#706F6F;stroke-width:14.1732;stroke-linecap:round;stroke-linejoin:round;stroke-miterlimit:10;}
	.st2{fill:none;stroke:#706F6F;stroke-width:14.1732;stroke-linecap:round;stroke-miterlimit:10;}
</style>
<g id="Layer_1">
</g>
<g id="Layer_3">
	<circle class="st0" cx="141.73" cy="98.99" r="70.87"/>
	<path class="st0" d="M109.37,127.69"/>
	<path class="st1" d="M111.31,127.69V76.85c0,0,3.49-8.15,8.54-9.7c5.04-1.55,46.18,0,46.18,0s7.37,5.04,6.99,9.31
		c-0.39,4.27,0.01,46.96,0.01,46.96s-4.67,3.49-8.55,4.27c-3.88,0.78-27.55,0-27.55,0s-6.99-2.72-6.99-5.04
		c0-2.33,0.39-30.27,0.39-30.27s7.39-6.6,11.84-6.6c4.46,0,9.89,6.21,9.89,6.21v16.69"/>
	<path class="st0" d="M142.17,175.81"/>
	<path class="st0" d="M128,241.78"/>
	<path class="st0" d="M145.2,255.34h-8.79c-4.63,0-8.41-3.78-8.41-8.41v-50.41c0-4.63,3.78-8.41,8.41-8.41h8.79
		c4.63,0,8.41,3.78,8.41,8.41v50.41C153.61,251.55,149.83,255.34,145.2,255.34z"/>
	<line class="st2" x1="140.81" y1="173.87" x2="140.81" y2="185.51"/>
</g>
</svg>
