<?xml version="1.0" encoding="utf-8"?>
<!-- Generator: Adobe Illustrator 24.0.1, SVG Export Plug-In . SVG Version: 6.00 Build 0)  -->
<svg version="1.1" xmlns="http://www.w3.org/2000/svg" xmlns:xlink="http://www.w3.org/1999/xlink" x="0px" y="0px"
	 viewBox="0 0 283.46 283.46" style="enable-background:new 0 0 283.46 283.46;" xml:space="preserve">
<style type="text/css">
	.st0{fill:none;stroke:#706F6F;stroke-width:14.1732;stroke-miterlimit:10;}
</style>
<g id="Layer_1">
</g>
<g id="Layer_3">
	<path class="st0" d="M64,159.64"/>
	<path class="st0" d="M64,159.64l4.56-47.32c0,0,2.57-9.98,9.98-7.98c7.41,2,43.62,3.99,43.62,3.99s8.84-1.43,7.98-7.98
		c-0.86-6.56-11.09-16.19-11.12-21.95c-0.03-6.15,6.56-28.22,26.23-27.37s25.27,21.81,24.52,26.8c-0.86,5.7-9.85,19.99-9.55,22.66
		c0.3,2.68,0.03,7.43,4.42,8.12c4.5,0.72,47.89-3.29,47.89-3.29s6.84,0.44,7.41,5.86c0.57,5.42,0,112.32,0,112.32
		s-1.43,5.13-5.42,7.98c-3.99,2.85-142.54-1.43-142.54-1.43S60.29,201.83,64,188.72c3.71-13.11,25.37,15.68,37.06,11.69
		c11.69-3.99,21.11-16.72,22.81-24.23c2-8.84-7.7-27.37-23.38-27.08c-15.68,0.29-24.52,11.69-29.36,13.68S64,159.64,64,159.64z"/>
</g>
</svg>
