<?xml version="1.0" encoding="utf-8"?>
<!-- Generator: Adobe Illustrator 24.0.1, SVG Export Plug-In . SVG Version: 6.00 Build 0)  -->
<svg version="1.1" id="Layer_2" xmlns="http://www.w3.org/2000/svg" xmlns:xlink="http://www.w3.org/1999/xlink" x="0px" y="0px"
	 viewBox="0 0 283.46 283.46" style="enable-background:new 0 0 283.46 283.46;" xml:space="preserve">
<style type="text/css">
	.st0{fill:none;stroke:#706F6F;stroke-width:14.1732;stroke-miterlimit:10;}
	.st1{fill:none;stroke:#706F6F;stroke-width:14.1732;stroke-linecap:round;stroke-linejoin:round;stroke-miterlimit:10;}
</style>
<ellipse class="st0" cx="139.97" cy="69.98" rx="29.84" ry="10.81"/>
<path class="st1" d="M51.02,222.73l37.12-114.19c0,0,26.31-23.97,43.7,5.64v34.48c0,0-8.93,25.67-26.78,20.97
	c0,0,0,28.66-25.84,29.6C79.22,199.24,74.99,231.66,51.02,222.73z"/>
<path class="st1" d="M232.44,222.73l-37.12-114.19c0,0-26.31-23.97-43.7,5.64v34.48c0,0,8.93,25.67,26.78,20.97
	c0,0,0,28.66,25.84,29.6C204.25,199.24,208.48,231.66,232.44,222.73z"/>
</svg>
