<?xml version="1.0" encoding="utf-8"?>
<!-- Generator: Adobe Illustrator 24.0.1, SVG Export Plug-In . SVG Version: 6.00 Build 0)  -->
<svg version="1.1" id="Layer_1" xmlns="http://www.w3.org/2000/svg" xmlns:xlink="http://www.w3.org/1999/xlink" x="0px" y="0px"
	 viewBox="0 0 283.46 283.46" style="enable-background:new 0 0 283.46 283.46;" xml:space="preserve">
<style type="text/css">
	.st0{fill:none;stroke:#706F6F;stroke-width:14.1732;stroke-linecap:round;stroke-linejoin:round;stroke-miterlimit:10;}
	.st1{fill:#3C3C3B;stroke:#706F6F;stroke-width:14.1732;stroke-linecap:round;stroke-linejoin:round;stroke-miterlimit:10;}
</style>
<path class="st0" d="M100.6,72.7c49.9-9.26,99.22,17.46,110.17,59.69c9.26,35.73-17.46,71.06-59.69,78.89
	c-35.73,6.63-71.06-12.51-78.89-42.75c-6.63-25.59,12.51-50.88,42.75-56.5c25.59-4.75,50.88,8.96,56.5,30.61
	c4.75,18.33-8.96,36.44-30.61,40.46c-18.33,3.4-36.44-6.41-40.46-21.92c-3.4-13.12,6.41-26.09,21.92-28.97
	c13.12-2.44,26.09,4.59,28.97,15.7c2.44,9.4-4.59,18.69-15.7,20.75"/>
<circle class="st1" cx="133.38" cy="162.61" r="6.05"/>
</svg>
