<?xml version="1.0" encoding="utf-8"?>
<!-- Generator: Adobe Illustrator 24.0.1, SVG Export Plug-In . SVG Version: 6.00 Build 0)  -->
<svg version="1.1" id="Layer_2" xmlns="http://www.w3.org/2000/svg" xmlns:xlink="http://www.w3.org/1999/xlink" x="0px" y="0px"
	 viewBox="0 0 283.46 283.46" style="enable-background:new 0 0 283.46 283.46;" xml:space="preserve">
<style type="text/css">
	.st0{fill:none;stroke:#706F6F;stroke-width:14.1732;stroke-linecap:round;stroke-linejoin:round;stroke-miterlimit:10;}
</style>
<path class="st0" d="M174.94,49.62c0,2.65-23.5,10.21-33.21,10.21c-11.33,0-21.33-1.74-27.33-4.41c-3.71-1.65-5.89-3.65-5.89-5.81
	c0-5.64,14.87-10.21,33.21-10.21S174.94,43.98,174.94,49.62z"/>
<path class="st0" d="M114.14,59.01l-0.16,42.33L68.5,216.2c0,0-4.21,13.23,12.68,20.64l121.22-0.82
	c16.4-7.94,12.68-20.64,12.68-20.64l-45.48-114.87l-0.16-42.33"/>
<path class="st0" d="M140.99,244.05"/>
<line class="st0" x1="152.14" y1="173.51" x2="168.43" y2="173.51"/>
<line class="st0" x1="152.14" y1="200.08" x2="168.43" y2="200.08"/>
</svg>
