<?xml version="1.0" encoding="utf-8"?>
<!-- Generator: Adobe Illustrator 24.0.1, SVG Export Plug-In . SVG Version: 6.00 Build 0)  -->
<svg version="1.1" id="Layer_2" xmlns="http://www.w3.org/2000/svg" xmlns:xlink="http://www.w3.org/1999/xlink" x="0px" y="0px"
	 viewBox="0 0 283.46 283.46" style="enable-background:new 0 0 283.46 283.46;" xml:space="preserve">
<style type="text/css">
	.st0{fill:none;stroke:#706F6F;stroke-width:14.1732;stroke-linecap:round;stroke-miterlimit:10;}
</style>
<circle class="st0" cx="118.25" cy="112.12" r="43.33"/>
<path class="st0" d="M94.51,152.53l-8.19,2.92c0,0-30.52,9.41-45.76,54.14c-3.15,9.23,3.63,18.83,13.38,18.83h130.24
	c9.75,0,16.53-9.6,13.38-18.83c-15.25-44.73-45.76-54.14-45.76-54.14l-11.03-4.44"/>
<path class="st0" d="M199.8,217.08h10.81h18.92c9.75,0,16.53-9.6,13.38-18.83c-15.25-44.73-45.76-54.14-45.76-54.14l-11.03-2.4"/>
<path class="st0" d="M135.18,72.22"/>
<path class="st0" d="M151.08,137.5"/>
<path class="st0" d="M135.18,72.23c7.91-10.44,20.45-17.18,34.56-17.18c23.93,0,43.33,19.4,43.33,43.33s-19.4,43.33-43.33,43.33
	c-6.01,0-11.74-1.22-16.95-3.44"/>
</svg>
