<?xml version="1.0" encoding="utf-8"?>
<!-- Generator: Adobe Illustrator 24.0.1, SVG Export Plug-In . SVG Version: 6.00 Build 0)  -->
<svg version="1.1" xmlns="http://www.w3.org/2000/svg" xmlns:xlink="http://www.w3.org/1999/xlink" x="0px" y="0px"
	 viewBox="0 0 283.46 283.46" style="enable-background:new 0 0 283.46 283.46;" xml:space="preserve">
<style type="text/css">
	.st0{fill:none;stroke:#706F6F;stroke-width:14.1732;stroke-miterlimit:10;}
	.st1{fill:none;stroke:#706F6F;stroke-width:14.1732;stroke-linecap:round;stroke-linejoin:round;stroke-miterlimit:10;}
</style>
<g id="Layer_1">
</g>
<g id="Layer_3">
	<path class="st0" d="M71.43,171.87"/>
	<path class="st1" d="M71.43,171.87"/>
	<path class="st0" d="M198.93,227.31H84.19V91.78c0-6.6,5.4-12,12-12h90.75c6.6,0,12,5.4,12,12V227.31z"/>
	<path class="st0" d="M157.73,75.92h-36.16V63.95c0-4.29,3.51-7.79,7.79-7.79h20.58c4.29,0,7.79,3.51,7.79,7.79V75.92z"/>
	<path class="st0" d="M165.02,132.33h-45.91c-6.6,0-12-5.4-12-12v-36.7h69.91v36.7C177.02,126.93,171.62,132.33,165.02,132.33z"/>
	<path class="st0" d="M154.94,176.95h-29.61c-0.21,0-0.38,0.17-0.38,0.38v0.2c0,0.21,0.17,0.38,0.38,0.38h29.61
		c0.21,0,0.38-0.17,0.38-0.38v-0.2C155.32,177.12,155.15,176.95,154.94,176.95z"/>
	<path class="st0" d="M213.64,227.12h-11.27v-54.69h11.27c6.8,0,12.36,5.56,12.36,12.36v29.98
		C225.99,221.56,220.43,227.12,213.64,227.12z"/>
	<path class="st0" d="M69.83,172.43H81.1v54.69H69.83c-6.8,0-12.36-5.56-12.36-12.36v-29.98C57.47,177.99,63.03,172.43,69.83,172.43
		z"/>
</g>
</svg>
