<svg id="bell" xmlns="http://www.w3.org/2000/svg" width="20" height="25" viewBox="0 0 20 25">
  <path id="Path_22" data-name="Path 22" d="M21.379,17.359A6.95,6.95,0,0,1,19,12.1V9.237a7.132,7.132,0,0,0-6-7.1V1.026a1,1,0,1,0-2,0V2.135a7.132,7.132,0,0,0-6,7.1V12.1a6.957,6.957,0,0,1-2.388,5.268A1.813,1.813,0,0,0,2,18.732a1.775,1.775,0,0,0,1.75,1.8h16.5a1.775,1.775,0,0,0,1.75-1.8A1.82,1.82,0,0,0,21.379,17.359Z" transform="translate(-2 0)" fill="#fff"/>
  <path id="Path_23" data-name="Path 23" d="M12.434,24.354A4.2,4.2,0,0,0,16.542,21H8.326A4.2,4.2,0,0,0,12.434,24.354Z" transform="translate(-2.434 0.646)" fill="#fff"/>
</svg>
