<svg xmlns="http://www.w3.org/2000/svg" width="27.349" height="27.349" viewBox="0 0 27.349 27.349">
  <g id="edit" transform="translate(0 -0.004)">
    <g id="Group_4" data-name="Group 4" transform="translate(0 1.957)">
      <g id="Group_3" data-name="Group 3">
        <path id="Path_12" data-name="Path 12" d="M22.465,45.858a.977.977,0,0,0-.977.977V56.6a.977.977,0,0,1-.977.977H2.93a.977.977,0,0,1-.977-.977V37.067a.977.977,0,0,1,.977-.977H14.651a.977.977,0,1,0,0-1.953H2.93A2.93,2.93,0,0,0,0,37.067V56.6a2.93,2.93,0,0,0,2.93,2.93H20.512a2.93,2.93,0,0,0,2.93-2.93V46.835A.977.977,0,0,0,22.465,45.858Z" transform="translate(0 -34.137)" fill="#fff"/>
      </g>
    </g>
    <g id="Group_6" data-name="Group 6" transform="translate(5.861 0.004)">
      <g id="Group_5" data-name="Group 5">
        <path id="Path_13" data-name="Path 13" d="M122.8,1.1a3.739,3.739,0,0,0-5.288,0L104.648,13.964a.987.987,0,0,0-.235.382l-1.953,5.86a.977.977,0,0,0,.926,1.285.992.992,0,0,0,.309-.05l5.86-1.953a.977.977,0,0,0,.382-.236L122.8,6.387A3.739,3.739,0,0,0,122.8,1.1ZM121.42,5.007l-12.7,12.7-3.794,1.267,1.263-3.789,12.7-12.7a1.785,1.785,0,1,1,2.526,2.522Z" transform="translate(-102.409 -0.004)" fill="#fff"/>
      </g>
    </g>
  </g>
</svg>
