<svg xmlns="http://www.w3.org/2000/svg" width="60.71" height="72.197" viewBox="0 0 60.71 72.197">
  <g id="Favorite" transform="translate(5260.138 9168.197)">
    <path id="Subtraction_5" data-name="Subtraction 5" d="M47.12,58.179a3.228,3.228,0,0,1-1.656-.458L35.051,51.494V30.753H7.19L1.1,25.413a3.231,3.231,0,0,1,1.834-5.646l17.528-1.591L27.388,1.96a3.228,3.228,0,0,1,5.938,0l6.926,16.216,17.525,1.591a3.231,3.231,0,0,1,1.834,5.646L46.363,37.029l3.906,17.2a3.23,3.23,0,0,1-3.148,3.946Z" transform="translate(-5260.138 -9168.197)" fill="#fff"/>
    <g id="Path_80" data-name="Path 80" transform="translate(-5260.138 -9135.455)" fill="none">
      <path d="M0,0H32.373V39.455l-16.265-16.5L0,39.455Z" stroke="none"/>
      <path d="M 2.999998092651367 2.999996185302734 L 2.999998092651367 32.08783340454102 L 13.96147918701172 20.86113357543945 L 16.09760856628418 18.67331504821777 L 18.24432754516602 20.85074424743652 L 29.37307929992676 32.1386833190918 L 29.37307929992676 2.999996185302734 L 2.999998092651367 2.999996185302734 M 0 -3.814697265625e-06 L 32.37307739257813 -3.814697265625e-06 L 32.37307739257813 39.45468521118164 L 16.10799789428711 22.95694541931152 L 0 39.45468521118164 L 0 -3.814697265625e-06 Z" stroke="none" fill="#fff"/>
    </g>
  </g>
</svg>
