<svg xmlns="http://www.w3.org/2000/svg" width="28.128" height="35.751" viewBox="0 0 28.128 35.751">
  <g id="Group_2" data-name="Group 2" transform="translate(-1157.574 -437.838)">
    <g id="Subtraction_2" data-name="Subtraction 2" transform="translate(1158.987 462.34)" fill="none">
      <path d="M12.307,11.249A18.241,18.241,0,0,1,0,6.479,19.111,19.111,0,0,1,5.479.5C5.735.321,6,.154,6.259,0a10.358,10.358,0,0,0,6.4,2.222A10.293,10.293,0,0,0,17.8.841a10.455,10.455,0,0,0,.936-.61c.139.088.274.177.4.264a19.112,19.112,0,0,1,5.478,5.984A18.242,18.242,0,0,1,12.307,11.249Z" stroke="none"/>
      <path d="M 12.30746555328369 11.24872016906738 C 7.748004913330078 11.24872016906738 3.377125024795532 9.554699897766113 -4.908447408524808e-06 6.478720188140869 C 1.555195093154907 3.921940088272095 3.398535013198853 1.909090042114258 5.47867488861084 0.4951200783252716 C 5.735245227813721 0.3207800984382629 5.997885227203369 0.1541900783777237 6.259264945983887 8.453368849359322e-08 C 8.070745468139648 1.432820081710815 10.34363555908203 2.221870183944702 12.66008472442627 2.221870183944702 C 14.45606517791748 2.221870183944702 16.232666015625 1.744340062141418 17.79780578613281 0.8408800959587097 C 18.12018585205078 0.6547700762748718 18.43521499633789 0.4496800899505615 18.73413467407227 0.2313200831413269 C 18.87291526794434 0.3191500902175903 19.00791549682617 0.4079200923442841 19.13625526428223 0.4951200783252716 C 21.21745491027832 1.910500049591064 23.06051445007324 3.923900127410889 24.61425590515137 6.479400157928467 C 21.23647499084473 9.555290222167969 16.86588478088379 11.24872016906738 12.30746555328369 11.24872016906738 Z" stroke="none" fill="#fff"/>
    </g>
    <g id="Ellipse_6" data-name="Ellipse 6" transform="translate(1157.574 448.134) rotate(-30)" fill="none" stroke="#fff" stroke-width="5">
      <circle cx="10.295" cy="10.295" r="10.295" stroke="none"/>
      <circle cx="10.295" cy="10.295" r="7.795" fill="none"/>
    </g>
  </g>
</svg>
