<svg xmlns="http://www.w3.org/2000/svg" width="73.227" height="72.197" viewBox="0 0 73.227 72.197">
  <g id="Latest_shop" data-name="Latest shop" transform="translate(5267.227 9168.197)">
    <path id="Subtraction_4" data-name="Subtraction 4" d="M56.705,72.2a7.089,7.089,0,0,1-6.615-9.633,21.059,21.059,0,0,0,4.531.624,2.836,2.836,0,1,0,3.907-.249,20.865,20.865,0,0,0,5.265-1.563v4.442h-.035A7.1,7.1,0,0,1,56.705,72.2Zm-41.111,0a7.088,7.088,0,1,1,0-14.176,7.025,7.025,0,0,1,2.835.593V53.768h-1.7a8.231,8.231,0,0,1-8.221-8.222V6.277A2.026,2.026,0,0,0,6.482,4.253H0V0H6.482a6.284,6.284,0,0,1,6.277,6.277V9.462l51.035,9.214v4.343A20.84,20.84,0,0,0,55.227,21.2c-.4,0-.81.012-1.212.034l-3.689-.666v1.207a20.893,20.893,0,0,0-4.252,1.52V19.8l-7.8-1.408V29.8a20.838,20.838,0,0,0-4.049,12.4c0,.659.031,1.324.092,1.976l-21.56-.3v1.672a3.974,3.974,0,0,0,3.969,3.969h18.81A20.961,20.961,0,0,0,37.7,53.768H22.682v12.05h-.035A7.1,7.1,0,0,1,15.594,72.2Zm0-9.923a2.835,2.835,0,1,0,2.835,2.835A2.839,2.839,0,0,0,15.594,62.274Zm9.923-46.187V39.8l8.506.118V17.623Zm-12.759-2.3V39.621l8.506.118V15.319Z" transform="translate(-5267.227 -9168.197)" fill="#fff"/>
    <g id="Clock">
      <g id="Ellipse_39" data-name="Ellipse 39" transform="translate(-5230 -9144)" fill="none" stroke="#fff" stroke-width="3">
        <circle cx="18" cy="18" r="18" stroke="none"/>
        <circle cx="18" cy="18" r="16.5" fill="none"/>
      </g>
      <path id="Path_79" data-name="Path 79" d="M0,0,9.09,6.914" transform="translate(-5220.5 -9129.5)" fill="#fff" stroke="#fff" stroke-width="3"/>
      <path id="Path_78" data-name="Path 78" d="M-2.442,10.678,7,0" transform="translate(-5210.5 -9133.5)" fill="#fff" stroke="#fff" stroke-width="3"/>
    </g>
  </g>
</svg>
