<svg xmlns="http://www.w3.org/2000/svg" width="28.469" height="31.057" viewBox="0 0 28.469 31.057">
  <g id="share" transform="translate(0 0)">
    <path id="Path_83" data-name="Path 83" d="M323.079,20.206A4.206,4.206,0,1,1,318.874,16,4.206,4.206,0,0,1,323.079,20.206Zm0,0" transform="translate(-295.58 -15.029)" fill="#fff"/>
    <path id="Path_84" data-name="Path 84" d="M303.844,10.353a5.176,5.176,0,1,1,5.176-5.176A5.181,5.181,0,0,1,303.844,10.353Zm0-8.412a3.235,3.235,0,1,0,3.235,3.235,3.239,3.239,0,0,0-3.235-3.235Zm0,0" transform="translate(-280.551)" fill="#fff"/>
    <path id="Path_85" data-name="Path 85" d="M323.079,361.538a4.206,4.206,0,1,1-4.206-4.206A4.206,4.206,0,0,1,323.079,361.538Zm0,0" transform="translate(-295.58 -335.656)" fill="#fff"/>
    <path id="Path_86" data-name="Path 86" d="M303.844,351.685a5.176,5.176,0,1,1,5.176-5.176A5.181,5.181,0,0,1,303.844,351.685Zm0-8.411a3.235,3.235,0,1,0,3.235,3.235A3.239,3.239,0,0,0,303.844,343.273Zm0,0" transform="translate(-280.551 -320.627)" fill="#fff"/>
    <path id="Path_87" data-name="Path 87" d="M24.412,190.874a4.206,4.206,0,1,1-4.206-4.206A4.206,4.206,0,0,1,24.412,190.874Zm0,0" transform="translate(-15.03 -175.345)" fill="#fff"/>
    <path id="Path_88" data-name="Path 88" d="M5.176,181.02a5.176,5.176,0,1,1,5.176-5.176,5.181,5.181,0,0,1-5.176,5.176Zm0-8.411a3.235,3.235,0,1,0,3.235,3.235,3.239,3.239,0,0,0-3.235-3.235Zm0,0" transform="translate(0 -160.315)" fill="#fff"/>
    <path id="Path_89" data-name="Path 89" d="M115.644,99.65A1.294,1.294,0,0,1,115,97.231l12.007-6.846a1.294,1.294,0,1,1,1.281,2.249L116.283,99.48a1.286,1.286,0,0,1-.639.17Zm0,0" transform="translate(-107.412 -84.742)" fill="#fff"/>
    <path id="Path_90" data-name="Path 90" d="M127.671,275.654a1.286,1.286,0,0,1-.639-.17l-12.008-6.846a1.294,1.294,0,0,1,1.281-2.249l12.008,6.846a1.294,1.294,0,0,1-.642,2.419Zm0,0" transform="translate(-107.434 -250.07)" fill="#fff"/>
  </g>
</svg>
