<svg xmlns="http://www.w3.org/2000/svg" width="63.794" height="72.197" viewBox="0 0 63.794 72.197">
  <g id="Shop" transform="translate(5142.227 9172.197)">
    <g id="shopping-cart" transform="translate(-5171.864 -9172.197)">
      <path id="Path_77" data-name="Path 77" d="M93.431,44.583V18.676L42.4,9.462V6.277A6.284,6.284,0,0,0,36.119,0H29.637V4.253h6.482a2.026,2.026,0,0,1,2.024,2.024v39.27a8.231,8.231,0,0,0,8.222,8.222h1.7v4.847a7.087,7.087,0,1,0,4.217,7.2h.036V53.768H89.178v4.847a7.087,7.087,0,1,0,4.217,7.2h.036v-16.3H46.365A3.973,3.973,0,0,1,42.4,45.546V43.874Zm-48.2,23.361a2.835,2.835,0,1,1,2.835-2.835A2.839,2.839,0,0,1,45.231,67.944Zm41.112,0a2.835,2.835,0,1,1,2.835-2.835A2.839,2.839,0,0,1,86.343,67.944ZM63.661,39.916,55.155,39.8V16.087l8.506,1.536Zm4.253-21.525,7.8,1.408V40.083l-7.8-.108ZM50.9,39.739,42.4,39.621V13.783L50.9,15.319Zm38.277.532-9.215-.128V20.566l9.215,1.664Z" fill="#fff"/>
    </g>
  </g>
</svg>
