<svg xmlns="http://www.w3.org/2000/svg" width="27" height="27" viewBox="0 0 27 27">
  <path id="Subtraction_12" data-name="Subtraction 12" d="M3662.5,15513a13.5,13.5,0,1,1,9.545-3.953A13.418,13.418,0,0,1,3662.5,15513Zm-1.273-7.6h1.892v3.921h2.753v-3.921h3.749a12.99,12.99,0,0,0-3.745-9.138v-6.583h-2.752v4.446a13.172,13.172,0,0,0-1.892-.907v-3.539h-2.752v2.822a13.182,13.182,0,0,0-1.9-.136v4.882a8.064,8.064,0,0,1,3.739.906,8.236,8.236,0,0,1,2.833,2.422h-6.576v4.824h1.9v3.921h2.752v-3.92Z" transform="translate(-3649 -15486)" fill="#fff"/>
</svg>
