<svg xmlns="http://www.w3.org/2000/svg" width="71.542" height="72.197" viewBox="0 0 71.542 72.197">
  <g id="user_icon" data-name="user icon" transform="translate(5039.542 9222.197)">
    <path id="Subtraction_3" data-name="Subtraction 3" d="M27.031,63.3h-.092a59.188,59.188,0,0,1-10.595-.942A52.825,52.825,0,0,1,8.381,60.26a34.561,34.561,0,0,1-7.027-3.231A1.673,1.673,0,0,1,.672,56.2C-.056,54.364,0,50.68,0,50.266v-.04A2.537,2.537,0,0,0,.017,49.9V49.88C.1,47.3.279,41.243,5.954,39.295l.013,0c.035-.012.072-.023.118-.035A37.728,37.728,0,0,0,16.964,34.3a1.752,1.752,0,0,1,1.013-.322,1.778,1.778,0,0,1,1.451.754A1.767,1.767,0,0,1,19,37.2l-.057.038A41.17,41.17,0,0,1,7.029,42.664C3.987,43.748,3.634,47.021,3.542,50c0,.061,0,.118-.007.173s-.006.1-.006.155a22.324,22.324,0,0,0,.274,4.05c2.2,1.242,10.343,5.3,22.738,5.386v.43a9.992,9.992,0,0,0,.489,3.1ZM26.542,34.1h0a12,12,0,0,1-9.078-3.995c-5.012-5.65-4.222-15.29-4.116-16.37C13.675,6.7,17.027,3.357,19.782,1.8A14.575,14.575,0,0,1,26.834,0h.223a14.562,14.562,0,0,1,7.051,1.848C36.827,3.4,40.136,6.73,40.466,13.737a30.84,30.84,0,0,1-.285,7.461H36.612a27.71,27.71,0,0,0,.341-7.133.251.251,0,0,1-.014-.105c-.406-8.872-6.415-10.328-9.961-10.407h-.158c-2.851,0-9.529,1.014-9.961,10.407a.249.249,0,0,1-.006.042.346.346,0,0,0-.008.063,27.589,27.589,0,0,0,.062,5.128c.268,2.577,1.039,6.156,3.188,8.569a8.447,8.447,0,0,0,6.465,2.8c-.013.206-.02.42-.02.637v2.9Z" transform="translate(-5039.542 -9222.197)" fill="#fff"/>
    <g id="Rectangle_144" data-name="Rectangle 144" transform="translate(-5011 -9199)" fill="none" stroke="#fff" stroke-width="3">
      <rect width="43" height="49" rx="10" stroke="none"/>
      <rect x="1.5" y="1.5" width="40" height="46" rx="8.5" fill="none"/>
    </g>
    <line id="Line_98" data-name="Line 98" x2="18" transform="translate(-4998.5 -9182.5)" fill="none" stroke="#fff" stroke-width="3"/>
    <line id="Line_99" data-name="Line 99" x2="18" transform="translate(-4998.5 -9173.5)" fill="none" stroke="#fff" stroke-width="3"/>
    <line id="Line_100" data-name="Line 100" x2="18" transform="translate(-4998.5 -9165.5)" fill="none" stroke="#fff" stroke-width="3"/>
  </g>
</svg>
