<svg xmlns="http://www.w3.org/2000/svg" width="94.535" height="90.747" viewBox="0 0 94.535 90.747">
  <g id="wallet-filled-money-tool" transform="translate(0 -17.84)">
    <g id="Group_111" data-name="Group 111" transform="translate(0 17.84)">
      <path id="Path_71" data-name="Path 71" d="M164.659,35.115l37.687-10.287-2-4.034a5.311,5.311,0,0,0-7.113-2.4L159.5,35.115Z" transform="translate(-142.568 -17.84)" fill="#26c7bf"/>
      <path id="Path_72" data-name="Path 72" d="M359.294,86.46a5.306,5.306,0,0,0-1.4.191l-8.854,2.42L322,96.45h44.067l-1.656-6.072A5.3,5.3,0,0,0,359.294,86.46Z" transform="translate(-287.817 -79.175)" fill="#26c7bf"/>
      <path id="Path_73" data-name="Path 73" d="M83.781,215.56H5.319a5.315,5.315,0,0,0-5.128,3.917A5.5,5.5,0,0,0,0,220.868v59.142a5.31,5.31,0,0,0,5.308,5.308H83.771a5.31,5.31,0,0,0,5.308-5.308V265.2h-31.5a9.03,9.03,0,0,1-9.024-9.024v-11.8a9.01,9.01,0,0,1,9.013-9.013H89.079V220.868A5.294,5.294,0,0,0,83.781,215.56Z" transform="translate(0 -194.57)" fill="#26c7bf"/>
      <path id="Path_74" data-name="Path 74" d="M532.932,438.152a5.3,5.3,0,0,0-1.858-1.1,5.414,5.414,0,0,0-1.72-.286H497.708a5.31,5.31,0,0,0-5.308,5.308v11.815a5.31,5.31,0,0,0,5.308,5.308h31.646a5.41,5.41,0,0,0,1.72-.287,5.148,5.148,0,0,0,1.858-1.1,5.29,5.29,0,0,0,1.73-3.917V442.069A5.289,5.289,0,0,0,532.932,438.152Zm-24.141,10.881a2.655,2.655,0,0,1-2.654,2.654h-1.762a2.655,2.655,0,0,1-2.654-2.654v-1.762a2.6,2.6,0,0,1,1.019-2.081,2.682,2.682,0,0,1,1.635-.573h1.762a2.655,2.655,0,0,1,2.654,2.654v1.762Z" transform="translate(-440.127 -392.289)" fill="#26c7bf"/>
    </g>
  </g>
</svg>
