<svg xmlns="http://www.w3.org/2000/svg" width="75.211" height="72.198" viewBox="0 0 75.211 72.198">
  <g id="wallet-filled-money-tool" transform="translate(0 -17.84)">
    <g id="Group_111" data-name="Group 111" transform="translate(0 17.84)">
      <path id="Path_71" data-name="Path 71" d="M163.6,31.584,193.588,23.4,192,20.19a4.225,4.225,0,0,0-5.659-1.909L159.5,31.584Z" transform="translate(-146.029 -17.84)" fill="#fff"/>
      <path id="Path_72" data-name="Path 72" d="M351.671,86.46a4.222,4.222,0,0,0-1.115.152l-7.044,1.926L322,94.408h35.059l-1.318-4.831A4.216,4.216,0,0,0,351.671,86.46Z" transform="translate(-294.804 -80.664)" fill="#fff"/>
      <path id="Path_73" data-name="Path 73" d="M66.655,215.56H4.231a4.228,4.228,0,0,0-4.079,3.117A4.372,4.372,0,0,0,0,219.783v47.052a4.224,4.224,0,0,0,4.223,4.223H66.647a4.224,4.224,0,0,0,4.223-4.223V255.053H45.811a7.184,7.184,0,0,1-7.179-7.179v-9.392a7.168,7.168,0,0,1,7.171-7.171H70.87V219.783A4.212,4.212,0,0,0,66.655,215.56Z" transform="translate(0 -198.861)" fill="#fff"/>
      <path id="Path_74" data-name="Path 74" d="M524.647,437.867a4.22,4.22,0,0,0-1.478-.878,4.307,4.307,0,0,0-1.368-.228H496.623a4.224,4.224,0,0,0-4.223,4.223v9.4a4.224,4.224,0,0,0,4.223,4.223H521.8a4.3,4.3,0,0,0,1.368-.228,4.1,4.1,0,0,0,1.478-.878,4.209,4.209,0,0,0,1.377-3.116v-9.4A4.208,4.208,0,0,0,524.647,437.867Zm-19.206,8.657a2.112,2.112,0,0,1-2.112,2.112h-1.4a2.112,2.112,0,0,1-2.112-2.112v-1.4a2.069,2.069,0,0,1,.811-1.656,2.133,2.133,0,0,1,1.3-.456h1.4a2.112,2.112,0,0,1,2.112,2.112v1.4Z" transform="translate(-450.812 -401.379)" fill="#fff"/>
    </g>
  </g>
</svg>
